<?xml version="1.0" encoding="UTF-8"?><svg id="Layer_2" xmlns="http://www.w3.org/2000/svg" viewBox="0 0 476.38 476.38"><defs><style>.cls-1{fill:#fff;}</style></defs><rect width="476.38" height="476.38" rx="80" fill="#0c0a06"/><g id="VECTORS"><circle class="cls-1" cx="336.85" cy="140.03" r="22.27"/><circle class="cls-1" cx="336.85" cy="204.88" r="22.27"/><circle class="cls-1" cx="336.85" cy="270.78" r="22.27"/><circle class="cls-1" cx="270.72" cy="140.03" r="22.27"/><circle class="cls-1" cx="205.4" cy="140.03" r="22.27"/><circle class="cls-1" cx="139.12" cy="140.03" r="22.27"/><circle class="cls-1" cx="139.12" cy="204.88" r="22.27"/><circle class="cls-1" cx="139.12" cy="270.78" r="22.27"/><circle class="cls-1" cx="336.85" cy="336.42" r="22.27"/><circle class="cls-1" cx="270.72" cy="336.42" r="22.27"/><circle class="cls-1" cx="205.4" cy="336.42" r="22.27"/><circle class="cls-1" cx="139.12" cy="336.42" r="22.27"/><circle class="cls-1" cx="401.45" cy="75.36" r="15.86"/><circle class="cls-1" cx="401.45" cy="140.03" r="15.86"/><circle class="cls-1" cx="401.45" cy="204.88" r="15.86"/><circle class="cls-1" cx="401.45" cy="270.78" r="15.86"/><circle class="cls-1" cx="401.45" cy="336.42" r="15.86"/><circle class="cls-1" cx="401.45" cy="400.54" r="15.86"/><circle class="cls-1" cx="74.58" cy="75.36" r="15.86"/><circle class="cls-1" cx="139.12" cy="75.36" r="15.86"/><circle class="cls-1" cx="205.4" cy="75.36" r="15.86"/><circle class="cls-1" cx="270.72" cy="75.36" r="15.86"/><circle class="cls-1" cx="336.85" cy="75.36" r="15.86"/><circle class="cls-1" cx="74.58" cy="400.54" r="15.86"/><circle class="cls-1" cx="139.12" cy="400.54" r="15.86"/><circle class="cls-1" cx="205.4" cy="400.54" r="15.86"/><circle class="cls-1" cx="270.72" cy="400.54" r="15.86"/><circle class="cls-1" cx="336.85" cy="400.54" r="15.86"/><circle class="cls-1" cx="74.58" cy="140.03" r="15.86"/><circle class="cls-1" cx="74.58" cy="204.88" r="15.86"/><circle class="cls-1" cx="74.58" cy="270.78" r="15.86"/><circle class="cls-1" cx="74.58" cy="336.42" r="15.86"/><circle class="cls-1" cx="466.96" cy="140.03" r="9.42"/><circle class="cls-1" cx="466.96" cy="204.88" r="9.42"/><circle class="cls-1" cx="466.96" cy="270.78" r="9.42"/><circle class="cls-1" cx="466.96" cy="336.42" r="9.42"/><circle class="cls-1" cx="9.42" cy="140.03" r="9.42"/><circle class="cls-1" cx="9.42" cy="204.88" r="9.42"/><circle class="cls-1" cx="9.42" cy="270.78" r="9.42"/><circle class="cls-1" cx="9.42" cy="336.42" r="9.42"/><circle class="cls-1" cx="139.12" cy="9.42" r="9.42"/><circle class="cls-1" cx="205.4" cy="9.42" r="9.42"/><circle class="cls-1" cx="270.72" cy="9.42" r="9.42"/><circle class="cls-1" cx="336.85" cy="9.42" r="9.42"/><circle class="cls-1" cx="139.12" cy="466.96" r="9.42"/><circle class="cls-1" cx="205.4" cy="466.96" r="9.42"/><circle class="cls-1" cx="270.72" cy="466.96" r="9.42"/><circle class="cls-1" cx="336.85" cy="466.96" r="9.42"/><circle class="cls-1" cx="270.72" cy="204.88" r="9.42"/><circle class="cls-1" cx="205.4" cy="204.88" r="9.42"/><circle class="cls-1" cx="270.72" cy="270.78" r="9.42"/><circle class="cls-1" cx="205.4" cy="270.78" r="9.42"/></g></svg>